<?xml version="1.0" encoding="UTF-8"?><svg id="Layer_2" xmlns="http://www.w3.org/2000/svg" viewBox="0 0 836.47 368.07"><defs><style>.cls-1{fill:#36ea7f;}</style></defs><g id="Layer_1-2"><path class="cls-1" d="M197.18,97.33l-28.65,48.74c-3.22,5.48,.73,12.39,7.09,12.39h52.8c2.91,0,5.61,1.54,7.09,4.06l12.71,21.62c3.22,5.48-.73,12.39-7.09,12.39h-97.56c-2.92,0-5.61,1.54-7.09,4.06l-18.67,31.77c-3.22,5.48,.73,12.39,7.09,12.39h154.25c2.91,0,5.61,1.54,7.09,4.06l12.71,21.62c3.22,5.48-.73,12.39-7.09,12.39H92.84c-2.92,0-5.61,1.54-7.09,4.06l-18.08,30.77c-3.22,5.48,.73,12.39,7.09,12.39h254.51c2.91,0,5.61,1.54,7.09,4.06l12.71,21.62c3.22,5.48-.73,12.39-7.09,12.39H8.24c-6.36,0-10.31-6.91-7.09-12.39l15.1-25.67,27.75-47.21,22.38-38.06,28.34-48.22,22.38-38.06,58.01-98.66,17.56-29.87,14.98-25.48c3.18-5.41,11-5.41,14.18,0l14.98,25.48,75.57,128.53,22.38,38.06,93.57,159.17c3.22,5.48-.73,12.39-7.09,12.39h-25.06c-2.91,0-5.61-1.54-7.09-4.06l-47.75-81.22-22.38-38.06-28.34-48.22-22.38-38.06-46.41-78.93c-3.18-5.41-11-5.41-14.18,0l-10.47,17.8Z"/><path class="cls-1" d="M604.18,271.14l-28.65-48.74c-3.22-5.48,.73-12.39,7.09-12.39h52.8c2.91,0,5.61-1.54,7.09-4.06l12.71-21.62c3.22-5.48-.73-12.39-7.09-12.39h-97.56c-2.92,0-5.61-1.54-7.09-4.06l-18.67-31.77c-3.22-5.48,.73-12.39,7.09-12.39h154.25c2.91,0,5.61-1.54,7.09-4.06l12.71-21.62c3.22-5.48-.73-12.39-7.09-12.39h-199.01c-2.92,0-5.61-1.54-7.09-4.06l-18.08-30.77c-3.22-5.48,.73-12.39,7.09-12.39h254.51c2.91,0,5.61-1.54,7.09-4.06l12.71-21.62c3.22-5.48-.73-12.39-7.09-12.39H415.24c-6.36,0-10.31,6.91-7.09,12.39l15.1,25.67,27.75,47.21,22.38,38.06,28.34,48.22,22.38,38.06,58.01,98.66,17.56,29.87,14.98,25.48c3.18,5.41,11,5.41,14.18,0l14.98-25.48,75.57-128.53,22.38-38.06L835.33,12.78c3.22-5.48-.73-12.39-7.09-12.39h-25.06c-2.91,0-5.61,1.54-7.09,4.06l-47.75,81.22-22.38,38.06-28.34,48.22-22.38,38.06-46.41,78.93c-3.18,5.41-11,5.41-14.18,0l-10.47-17.8Z"/><path class="cls-1" d="M547.82,356.54L345.45,3.84c-1.36-2.38-3.9-3.84-6.64-3.84h-31.68c-5.88,0-9.57,6.36-6.64,11.46l202.45,352.69c1.36,2.38,3.9,3.84,6.64,3.84h31.59c5.88,0,9.57-6.36,6.64-11.46Z"/></g></svg>